<?xml version="1.0" encoding="UTF-8"?>
<svg xmlns="http://www.w3.org/2000/svg" viewBox="0 0 1024 1024">
  <defs>
    <style>
      .cls-1 {
        fill: #fff;
        stroke: #000;
        stroke-miterlimit: 10;
      }
    </style>
  </defs>
  <g id="Layer_3" data-name="Layer 3">
    <rect class="cls-1" x="0" y="0" width="1024" height="1024" rx="80" ry="80"/>
  </g>
  <g id="Layer_2" data-name="Layer 2">
    <path d="M818.15,742.42c-14.59-22.61-28.54-45.66-43.94-67.7-16.25-23.26-32.51-46.45-45.99-71.47-13.19-24.47-26.12-49.07-39.79-73.27-23.19-41.06-46.45-82.05-72.94-121.17-15.09-22.28-28.33-45.84-41.78-69.18-16.67-28.93-32.81-58.18-48.93-87.43-4.17-7.57-7.45-15.63-11.72-24.71-1.5,2.68-2.53,4.4-3.44,6.18-10.43,20.51-19.14,42.14-31.6,61.33-30.41,46.81-56.74,96.06-87.9,142.47-29.08,43.31-53.72,89.51-77.92,135.82-18.62,35.62-39.34,69.89-63.02,102.48-14.82,20.39-27.29,42.49-40.78,63.84-.7,1.1-1.06,2.41-2.45,5.65,4.02-2.34,6.42-3.48,8.54-5.01,13.87-10.03,27.65-20.19,41.51-30.22,22.11-16,45.45-29.89,70.13-41.6,21.7-10.3,44.96-15.71,67.83-22.37,1.6-.47,3.31-.67,4.98-.7,7.58-.16,11.71,4.29,10.09,11.79-.99,4.58-3.04,9.05-5.24,13.23-9.63,18.27-22.49,34.25-36.46,49.28-8,8.61-16.79,16.51-25.48,24.46-5.68,5.21-12.64,8.08-20.12,10.05-27.46,7.24-54.63,15.56-78.9,30.78-15.9,9.97-31.25,20.88-46.45,31.92-19.98,14.5-39.1,30.29-62.04,40.13-5.38,2.31-10.98,4.4-16.69,5.6-11.5,2.42-17.5-3.34-15.14-14.97,1.55-7.63,4.05-15.26,7.39-22.29,7.6-15.95,14.94-32.18,24.25-47.12,20.78-33.34,42.32-66.22,64.31-98.77,12.92-19.12,24.72-38.81,35.45-59.2,28.63-54.44,58.28-108.38,92.09-159.72,24.43-37.09,46.32-75.63,69.36-113.51,13.56-22.29,25.66-45.52,33.8-70.5,1.36-4.18,2.44-8.82,2.07-13.11-.61-7.09,.64-13.62,4.35-19.35,7.92-12.23,15.88-24.48,24.69-36.07,12.43-16.36,28.88-28.86,43.53-43.09,5.52-5.37,11.97-5.31,17.48-.47,24.58,21.57,46.76,45.26,63.79,73.43,5.17,8.55,9.19,17.18,7.61,27.76-.54,3.61,1.05,7.73,2.31,11.4,9.63,28.05,23.98,53.79,38.98,79.2,8.99,15.23,17.93,30.49,27.01,45.66,6.49,10.84,12.74,21.85,19.84,32.27,39.1,57.41,72.76,118.03,105.55,179.14,14.49,27.02,30.41,52.98,47.73,78.29,21.39,31.25,41.6,63.36,61.05,95.86,9.46,15.8,16.2,33.26,23.76,50.15,1.9,4.25,2.84,9.19,3.07,13.87,.4,8.16-4.67,12.77-12.75,11.57-5.48-.81-10.94-2.5-16.12-4.54-16.58-6.53-31.26-16.4-45.55-26.87-16.07-11.78-31.9-23.89-48.24-35.28-24.36-16.99-50.83-29.67-79.7-37.11-7.33-1.89-14.67-3.88-21.77-6.45-4.68-1.69-9.48-3.86-13.31-6.95-26.7-21.57-48.54-47.35-65.38-77.3-1.77-3.14-3.13-6.66-3.94-10.17-2.03-8.77,2.37-13.8,11.22-12.87,3.87,.41,7.67,1.63,11.48,2.54,53.7,12.78,100.69,38.92,144.11,72.27,8.9,6.83,18.12,13.25,27.25,19.77,2.2,1.58,4.64,2.83,6.97,4.23,.63-.62,1.27-1.24,1.9-1.86Z"/>
  </g>
</svg>